{
  "accessors": [
    {
      "bufferView": 2,
      "componentType": 5126,
      "count": 275,
      "max": [
        4.834293365478516,
        1.9350266456604004,
        4.834293365478516
      ],
      "min": [
        -4.834293365478516,
        0.2820740342140198,
        -4.834293365478516
      ],
      "type": "VEC3"
    },
    {
      "bufferView": 2,
      "byteOffset": 3300,
      "componentType": 5126,
      "count": 275,
      "max": [
        0.9707125425338745,
        0.9884121417999268,
        0.9707125425338745
      ],
      "min": [
        -0.9707125425338745,
        -0.6947180032730103,
        -0.9707125425338745
      ],
      "type": "VEC3"
    },
    {
      "bufferView": 1,
      "componentType": 5126,
      "count": 275,
      "max": [
        1.0,
        0.019350266084074974
      ],
      "min": [
        0.0,
        0.002820740221068263
      ],
      "type": "VEC2"
    },
    {
      "bufferView": 0,
      "componentType": 5125,
      "count": 1440,
      "type": "SCALAR"
    },
    {
      "bufferView": 2,
      "byteOffset": 6600,
      "componentType": 5126,
      "count": 4066,
      "max": [
        6.36907958984375,
        22.155363082885742,
        5.5157856941223145
      ],
      "min": [
        -6.36907958984375,
        -22.17414665222168,
        -5.5157856941223145
      ],
      "type": "VEC3"
    },
    {
      "bufferView": 2,
      "byteOffset": 55392,
      "componentType": 5126,
      "count": 4066,
      "max": [
        1.0,
        1.0,
        1.0
      ],
      "min": [
        -1.0,
        -1.0,
        -1.0
      ],
      "type": "VEC3"
    },
    {
      "bufferView": 1,
      "byteOffset": 2200,
      "componentType": 5126,
      "count": 4066,
      "max": [
        14.0,
        0.22155362367630005
      ],
      "min": [
        0.0,
        -0.21013690531253815
      ],
      "type": "VEC2"
    },
    {
      "bufferView": 0,
      "byteOffset": 5760,
      "componentType": 5125,
      "count": 20478,
      "type": "SCALAR"
    },
    {
      "bufferView": 2,
      "byteOffset": 104184,
      "componentType": 5126,
      "count": 1250,
      "max": [
        3.2522506713867188,
        15.94969367980957,
        3.2522506713867188
      ],
      "min": [
        -3.2522506713867188,
        1.7577167749404907,
        -3.2522506713867188
      ],
      "type": "VEC3"
    },
    {
      "bufferView": 2,
      "byteOffset": 119184,
      "componentType": 5126,
      "count": 1250,
      "max": [
        1.0,
        1.0,
        1.0
      ],
      "min": [
        -1.0,
        -0.8744121789932251,
        -1.0
      ],
      "type": "VEC3"
    },
    {
      "bufferView": 1,
      "byteOffset": 34728,
      "componentType": 5126,
      "count": 1250,
      "max": [
        1.0,
        0.15949693322181702
      ],
      "min": [
        0.0,
        0.017577167600393295
      ],
      "type": "VEC2"
    },
    {
      "bufferView": 0,
      "byteOffset": 87672,
      "componentType": 5125,
      "count": 7056,
      "type": "SCALAR"
    }
  ],
  "asset": {
    "extras": {
      "author": "Unity Fan youtube channel (https://sketchfab.com/unityfan777)",
      "license": "SKETCHFAB Standard (https://sketchfab.com/licenses)",
      "source": "https://sketchfab.com/3d-models/spark-plug-dcd81accfd58412ca276711335bc6a5d",
      "title": "Spark Plug"
    },
    "generator": "Sketchfab-15.50.0",
    "version": "2.0"
  },
  "bufferViews": [
    {
      "buffer": 0,
      "byteLength": 115896,
      "name": "floatBufferViews",
      "target": 34963
    },
    {
      "buffer": 0,
      "byteLength": 44728,
      "byteOffset": 115896,
      "byteStride": 8,
      "name": "floatBufferViews",
      "target": 34962
    },
    {
      "buffer": 0,
      "byteLength": 134184,
      "byteOffset": 160624,
      "byteStride": 12,
      "name": "floatBufferViews",
      "target": 34962
    }
  ],
  "buffers": [
    {
      "byteLength": 294808,
      "uri": "scene.bin"
    }
  ],
  "materials": [
    {
      "doubleSided": true,
      "name": "black_blured",
      "pbrMetallicRoughness": {
        "baseColorFactor": [
          0.0,
          0.0,
          0.0,
          1.0
        ],
        "metallicFactor": 0.0,
        "roughnessFactor": 0.5002842480953857
      }
    },
    {
      "doubleSided": true,
      "name": "metal_blur",
      "pbrMetallicRoughness": {
        "baseColorFactor": [
          0.8,
          0.8,
          0.8,
          1.0
        ],
        "roughnessFactor": 0.3057187068687716
      }
    },
    {
      "doubleSided": true,
      "name": "white",
      "pbrMetallicRoughness": {
        "baseColorFactor": [
          0.8,
          0.8,
          0.8,
          1.0
        ],
        "metallicFactor": 0.0,
        "roughnessFactor": 0.2262741699796952
      }
    }
  ],
  "meshes": [
    {
      "name": "PlugSpark_black_blured_0",
      "primitives": [
        {
          "attributes": {
            "NORMAL": 1,
            "POSITION": 0,
            "TEXCOORD_0": 2
          },
          "indices": 3,
          "material": 0,
          "mode": 4
        }
      ]
    },
    {
      "name": "PlugSpark_metal_blur_0",
      "primitives": [
        {
          "attributes": {
            "NORMAL": 5,
            "POSITION": 4,
            "TEXCOORD_0": 6
          },
          "indices": 7,
          "material": 1,
          "mode": 4
        }
      ]
    },
    {
      "name": "PlugSpark_white_0",
      "primitives": [
        {
          "attributes": {
            "NORMAL": 9,
            "POSITION": 8,
            "TEXCOORD_0": 10
          },
          "indices": 11,
          "material": 2,
          "mode": 4
        }
      ]
    }
  ],
  "nodes": [
    {
      "children": [
        1
      ],
      "matrix": [
        1.0,
        0.0,
        0.0,
        0.0,
        0.0,
        2.220446049250313e-16,
        -1.0,
        0.0,
        0.0,
        1.0,
        2.220446049250313e-16,
        0.0,
        0.0,
        0.0,
        0.0,
        1.0
      ],
      "name": "Sketchfab_model"
    },
    {
      "children": [
        2
      ],
      "matrix": [
        0.009999999776482582,
        0.0,
        0.0,
        0.0,
        0.0,
        0.0,
        0.009999999776482582,
        0.0,
        0.0,
        -0.009999999776482582,
        0.0,
        0.0,
        0.0,
        0.0,
        0.0,
        1.0
      ],
      "name": "0e6b3aad62ce400dbd6453d25ccda953.fbx"
    },
    {
      "children": [
        3
      ],
      "name": "RootNode"
    },
    {
      "children": [
        4,
        5,
        6
      ],
      "matrix": [
        0.1709117889404297,
        0.0,
        0.0,
        0.0,
        0.0,
        0.1709117889404297,
        0.0,
        0.0,
        0.0,
        0.0,
        0.1709117889404297,
        0.0,
        0.0,
        0.0,
        0.0,
        1.0
      ],
      "name": "PlugSpark"
    },
    {
      "mesh": 0,
      "name": "PlugSpark_black_blured_0"
    },
    {
      "mesh": 1,
      "name": "PlugSpark_metal_blur_0"
    },
    {
      "mesh": 2,
      "name": "PlugSpark_white_0"
    }
  ],
  "scene": 0,
  "scenes": [
    {
      "name": "Sketchfab_Scene",
      "nodes": [
        0
      ]
    }
  ]
}
